<svg xmlns="http://www.w3.org/2000/svg" width="10" height="16" viewBox="0 0 10 16">
    <path fill="#FFF" fill-rule="evenodd" d="M8.611 0C9.377 0 10 .747 10 1.667v12.666C10 15.253 9.377 16 8.611 16H1.39C.623 16 0 15.253 0 14.333V1.667C0 .747.623 0 1.389 0H8.61zM9 13V1.667c0-.18-.127-.334-.286-.334H1.286c-.158 0-.286.154-.286.334V13c0 .187.128.333.286.333h7.428c.159 0 .286-.146.286-.333zm-4 2.333c.367 0 .667-.3.667-.666 0-.367-.3-.667-.667-.667-.367 0-.667.3-.667.667 0 .366.3.666.667.666z"/>
</svg>
