<svg height="165" viewBox="0 0 89 165" width="89" xmlns="http://www.w3.org/2000/svg"><path d="m13.6 10.6c1.1 2.9 4.4 4.5 7.3 3.4s4.5-4.4 3.4-7.3c-1.1-3-4.4-4.5-7.3-3.4-3 1.1-4.5 4.4-3.4 7.3m-1.6-2c0 3.1-2.5 5.7-5.7 5.7-3.1 0-5.7-2.6-5.7-5.7s2.5-5.7 5.7-5.7 5.7 2.6 5.7 5.7m1.6 18.6c1.1 2.9 4.4 4.5 7.3 3.4s4.5-4.4 3.4-7.3c-1.1-3-4.4-4.5-7.3-3.4-3 1.1-4.5 4.3-3.4 7.3m-1.6-2c0 3.1-2.5 5.7-5.7 5.7-3.1 0-5.7-2.6-5.7-5.7s2.5-5.7 5.7-5.7 5.7 2.5 5.7 5.7m1.6 18.5c1.1 2.9 4.4 4.5 7.3 3.4s4.5-4.4 3.4-7.3c-1.1-3-4.4-4.5-7.3-3.4-3 1.1-4.5 4.4-3.4 7.3m-1.6-2c0 3.1-2.5 5.7-5.7 5.7-3.1 0-5.7-2.6-5.7-5.7s2.5-5.7 5.7-5.7c3.2.1 5.7 2.6 5.7 5.7m1.6 18.6c1.1 2.9 4.4 4.5 7.3 3.4s4.5-4.4 3.4-7.3c-1.1-3-4.4-4.5-7.3-3.4-3 1.1-4.5 4.3-3.4 7.3m-1.6-2c0 3.1-2.5 5.7-5.7 5.7-3.1 0-5.7-2.6-5.7-5.7s2.5-5.7 5.7-5.7 5.7 2.6 5.7 5.7m1.6 18.6c1.1 2.9 4.4 4.5 7.3 3.4s4.5-4.4 3.4-7.3c-1.1-3-4.4-4.5-7.3-3.4-3 1-4.5 4.3-3.4 7.3m-1.6-2c0 3.1-2.5 5.7-5.7 5.7-3.1 0-5.7-2.6-5.7-5.7s2.5-5.7 5.7-5.7 5.7 2.5 5.7 5.7m1.6 18.5c1.1 2.9 4.4 4.5 7.3 3.4s4.5-4.4 3.4-7.3c-1.1-3-4.4-4.5-7.3-3.4-3 1.1-4.5 4.4-3.4 7.3m-1.6-2c0 3.1-2.5 5.7-5.7 5.7-3.1 0-5.7-2.6-5.7-5.7s2.5-5.7 5.7-5.7 5.7 2.6 5.7 5.7m1.6 18.6c1.1 2.9 4.4 4.5 7.3 3.4s4.5-4.4 3.4-7.3c-1.1-3-4.4-4.5-7.3-3.4-3 1-4.5 4.3-3.4 7.3m-1.6-2c0 3.1-2.5 5.7-5.7 5.7-3.1 0-5.7-2.6-5.7-5.7s2.5-5.7 5.7-5.7 5.7 2.5 5.7 5.7m1.6 18.5c1.1 2.9 4.4 4.5 7.3 3.4s4.5-4.4 3.4-7.3c-1.1-3-4.4-4.5-7.3-3.4-3 1.1-4.5 4.4-3.4 7.3m-1.6-2c0 3.1-2.5 5.7-5.7 5.7-3.1 0-5.7-2.6-5.7-5.7s2.5-5.7 5.7-5.7 5.7 2.6 5.7 5.7m1.6 18.6c1.1 2.9 4.4 4.5 7.3 3.4s4.5-4.4 3.4-7.3c-1.1-3-4.4-4.5-7.3-3.4-3 1.1-4.5 4.3-3.4 7.3m-1.6-2c0 3.1-2.5 5.7-5.7 5.7-3.1 0-5.7-2.6-5.7-5.7s2.5-5.7 5.7-5.7 5.7 2.5 5.7 5.7m1.6 18.5c1.1 2.9 4.4 4.5 7.3 3.4s4.5-4.4 3.4-7.3c-1.1-3-4.4-4.5-7.3-3.4-3 1.1-4.5 4.4-3.4 7.3m-1.6-2c0 3.1-2.5 5.7-5.7 5.7-3.1 0-5.7-2.6-5.7-5.7s2.5-5.7 5.7-5.7c3.2.1 5.7 2.6 5.7 5.7" fill="#fff"/><path d="m4.4 3c2.4-.3 9.1-.5 7.3 9.2l2.1-.2c-.9-6 1-9 7-9.3-10-5.5-15.7.2-16.4.3m0 16.5c2.4-.3 9.1-.5 7.3 9.2l2.1-.2c-.9-6 1-9 7-9.3-10-5.5-15.7.2-16.4.3m0 16.6c2.4-.3 9.1-.5 7.3 9.2l2.1-.2c-.9-6 1-9 7-9.3-10-5.5-15.7.2-16.4.3m0 16.5c2.4-.3 9.1-.5 7.3 9.2l2.1-.2c-.9-6 1-9 7-9.3-10-5.5-15.7.2-16.4.3m0 16.6c2.4-.3 9.1-.5 7.3 9.2l2.1-.2c-.9-6 1-9 7-9.3-10-5.5-15.7.2-16.4.3m0 16.5c2.4-.3 9.1-.5 7.3 9.2l2.1-.2c-.9-6 1-9 7-9.3-10-5.5-15.7.2-16.4.3m0 16.6c2.4-.3 9.1-.5 7.3 9.2l2.1-.2c-.9-6 1-9 7-9.3-10-5.5-15.7.2-16.4.3m0 16.6c2.4-.3 9.1-.5 7.3 9.2l2.1-.2c-.9-6 1-9 7-9.3-10-5.5-15.7.2-16.4.3m0 16.5c2.4-.3 9.1-.5 7.3 9.2l2.1-.2c-.9-6 1-9 7-9.3-10-5.5-15.7.2-16.4.3m0 16.6c2.4-.3 9.1-.5 7.3 9.2l2.1-.2c-.9-6 1-9 7-9.3-10-5.5-15.7.2-16.4.3" fill="#fcde8d"/><path d="m7.3 58.2c0 .6-.5 1.1-1.1 1.1s-1.1-.5-1.1-1.1.5-1.1 1.1-1.1c.6.1 1.1.6 1.1 1.1m0-49.6c0 .6-.5 1.1-1.1 1.1s-1.1-.5-1.1-1.1.5-1.1 1.1-1.1 1.1.5 1.1 1.1m0 16.5c0 .6-.5 1.1-1.1 1.1s-1.1-.5-1.1-1.1.5-1.1 1.1-1.1c.6.1 1.1.5 1.1 1.1m0 16.6c0 .6-.5 1.1-1.1 1.1s-1.1-.5-1.1-1.1.5-1.1 1.1-1.1 1.1.5 1.1 1.1m0 33.1c0 .6-.5 1.1-1.1 1.1s-1.1-.5-1.1-1.1.5-1.1 1.1-1.1 1.1.5 1.1 1.1m0 16.6c0 .6-.5 1.1-1.1 1.1s-1.1-.5-1.1-1.1.5-1.1 1.1-1.1 1.1.5 1.1 1.1m0 16.5c0 .6-.5 1.1-1.1 1.1s-1.1-.5-1.1-1.1.5-1.1 1.1-1.1c.6.1 1.1.5 1.1 1.1m0 16.6c0 .6-.5 1.1-1.1 1.1s-1.1-.5-1.1-1.1.5-1.1 1.1-1.1 1.1.5 1.1 1.1m0 16.5c0 .6-.5 1.1-1.1 1.1s-1.1-.5-1.1-1.1.5-1.1 1.1-1.1c.6.1 1.1.5 1.1 1.1m0 16.6c0 .6-.5 1.1-1.1 1.1s-1.1-.5-1.1-1.1.5-1.1 1.1-1.1 1.1.5 1.1 1.1" fill="#bb2536"/><path d="m24 4.9c.3-1.3 1.2-2.5 1.2-2.5h-4.2c-2.3-1.6-5.2-2.4-8.4-2.4-3.3 0-6.3.8-8.6 2.4h-4s.9 1.3 1.2 2.5c-.7 1-1.2 2.3-1.2 3.7 0 3.5 2.8 6.4 6.3 6.4 2 0 3.8-.9 4.9-2.4l1.3 2 1.4-2c.6.8 1.4 1.4 2.3 1.8 1.5.7 3.3.8 4.8.2 3.3-1.2 5-4.9 3.7-8.1 0-.6-.3-1.2-.7-1.6m-5.3-2.6c-.7 0-1.3.1-2 .4-1.6.6-2.9 1.8-3.6 3.3-.3.7-.5 1.4-.6 2.2-.2-3.2-2.9-5.8-6.2-5.9 1.8-.8 3.9-1.2 6.2-1.2 2.4 0 4.4.4 6.2 1.2m-12.4 11.4c-2.8 0-5.1-2.3-5.1-5 0-2.8 2.3-5.1 5.1-5.1s5.1 2.3 5.1 5.1c0 2.7-2.3 5-5.1 5m14.4-.3c-1.3.5-2.6.4-3.9-.2-1.2-.6-2.2-1.6-2.6-2.8-.5-1.3-.4-2.6.1-3.9.6-1.2 1.6-2.2 2.8-2.6 2.6-1 5.5.4 6.5 3 1.1 2.6-.3 5.5-2.9 6.5m-14.4-8c-1.7 0-3.1 1.4-3.1 3.1s1.4 3.1 3.1 3.1 3.1-1.4 3.1-3.1-1.4-3.1-3.1-3.1m0 5.2c-1.1 0-2.1-.9-2.1-2s.9-2 2.1-2c1.1 0 2 .9 2 2s-.9 2-2 2m12.6-5.2c-1.7 0-3.1 1.4-3.1 3.1s1.4 3.1 3.1 3.1 3.1-1.4 3.1-3.1c.1-1.7-1.3-3.1-3.1-3.1m0 5.2c-1.1 0-2.1-.9-2.1-2s.9-2 2.1-2c1.1 0 2 .9 2 2 .1 1.1-.8 2-2 2m5.1 10.8c.3-1.3 1.2-2.5 1.2-2.5h-4.2c-2.4-1.5-5.2-2.3-8.4-2.3-3.3 0-6.3.8-8.6 2.4h-4s.9 1.3 1.2 2.5c-.8 1-1.2 2.3-1.2 3.7 0 3.5 2.8 6.3 6.3 6.3 2 0 3.8-.9 4.9-2.4l1.3 2 1.4-2c.6.8 1.4 1.4 2.3 1.8 1.5.7 3.3.8 4.8.2 3.3-1.2 5-4.9 3.7-8.1 0-.6-.3-1.1-.7-1.6m-5.3-2.5c-.7 0-1.3.1-2 .4-1.6.6-2.9 1.8-3.6 3.3-.3.7-.5 1.4-.6 2.2-.2-3.2-2.9-5.8-6.2-5.9 1.8-.8 3.9-1.2 6.2-1.2 2.4 0 4.4.4 6.2 1.2m-12.4 11.3c-2.8 0-5.1-2.3-5.1-5 0-2.8 2.3-5.1 5.1-5.1s5.1 2.3 5.1 5.1-2.3 5-5.1 5m14.4-.3c-1.3.5-2.6.4-3.9-.2-1.2-.6-2.2-1.6-2.6-2.8-.5-1.3-.4-2.6.1-3.9.6-1.2 1.6-2.2 2.8-2.6 2.6-1 5.5.4 6.5 3 1.1 2.7-.3 5.6-2.9 6.5m-14.4-7.9c-1.7 0-3.1 1.4-3.1 3.1s1.4 3.1 3.1 3.1 3.1-1.4 3.1-3.1-1.4-3.1-3.1-3.1m0 5.2c-1.1 0-2.1-.9-2.1-2s.9-2 2.1-2c1.1 0 2 .9 2 2s-.9 2-2 2m12.6-5.2c-1.7 0-3.1 1.4-3.1 3.1s1.4 3.1 3.1 3.1 3.1-1.4 3.1-3.1c.1-1.7-1.3-3.1-3.1-3.1m0 5.2c-1.1 0-2.1-.9-2.1-2s.9-2 2.1-2c1.1 0 2 .9 2 2 .1 1.1-.8 2-2 2m5.1 10.8c.3-1.3 1.2-2.5 1.2-2.5h-4.2c-2.4-1.5-5.2-2.3-8.4-2.3-3.3 0-6.3.8-8.6 2.4h-4s.9 1.3 1.2 2.5c-.7.9-1.2 2.2-1.2 3.6 0 3.5 2.8 6.3 6.3 6.3 2 0 3.8-.9 4.9-2.4l1.3 2 1.4-2c.6.8 1.4 1.4 2.3 1.8 1.5.7 3.3.8 4.8.2 3.3-1.2 5-4.9 3.7-8.1 0-.5-.3-1-.7-1.5m-5.3-2.6c-.7 0-1.3.1-2 .4-1.6.6-2.9 1.8-3.6 3.3-.3.7-.5 1.4-.6 2.2-.2-3.2-2.9-5.8-6.2-5.9 1.8-.8 3.9-1.2 6.2-1.2 2.4 0 4.4.4 6.2 1.2m-12.4 11.4c-2.8 0-5.1-2.3-5.1-5 0-2.8 2.3-5.1 5.1-5.1s5.1 2.3 5.1 5.1c0 2.7-2.3 5-5.1 5m14.4-.3c-1.3.5-2.6.4-3.9-.2-1.2-.6-2.2-1.6-2.6-2.8-.5-1.3-.4-2.6.1-3.9.6-1.2 1.6-2.2 2.8-2.6 2.6-1 5.5.4 6.5 3 1.1 2.6-.3 5.5-2.9 6.5m-14.4-7.9c-1.7 0-3.1 1.4-3.1 3.1s1.4 3.1 3.1 3.1 3.1-1.4 3.1-3.1-1.4-3.1-3.1-3.1m0 5.1c-1.1 0-2.1-.9-2.1-2s.9-2 2.1-2c1.1 0 2 .9 2 2s-.9 2-2 2m12.6-5.1c-1.7 0-3.1 1.4-3.1 3.1s1.4 3.1 3.1 3.1 3.1-1.4 3.1-3.1c.1-1.7-1.3-3.1-3.1-3.1m0 5.1c-1.1 0-2.1-.9-2.1-2s.9-2 2.1-2c1.1 0 2 .9 2 2 .1 1.1-.8 2-2 2m5.1 10.9c.3-1.3 1.2-2.5 1.2-2.5l-4.2-.1c-2.4-1.5-5.2-2.3-8.4-2.3-3.3 0-6.3.8-8.6 2.4h-4s.9 1.3 1.2 2.5c-.8 1-1.2 2.3-1.2 3.7 0 3.5 2.8 6.3 6.3 6.3 2 0 3.8-.9 4.9-2.4l1.3 2 1.4-2c.6.8 1.4 1.4 2.3 1.8 1.5.7 3.3.8 4.8.2 3.3-1.2 5-4.9 3.7-8.1 0-.6-.3-1.1-.7-1.5m-5.3-2.6c-.7 0-1.3.1-2 .4-1.6.6-2.9 1.8-3.6 3.3-.3.7-.5 1.4-.6 2.2-.1-3.3-2.8-5.9-6-5.9 1.8-.8 3.9-1.2 6.2-1.2 2.2 0 4.2.4 6 1.2m-12.4 11.3c-2.8 0-5.1-2.3-5.1-5 0-2.8 2.3-5.1 5.1-5.1s5.1 2.3 5.1 5.1-2.3 5-5.1 5m14.4-.2c-1.3.5-2.6.4-3.9-.2-1.2-.6-2.2-1.6-2.6-2.8-.5-1.3-.4-2.6.1-3.9.6-1.2 1.6-2.2 2.8-2.6 2.6-1 5.5.4 6.5 3 1.1 2.6-.3 5.5-2.9 6.5m-14.4-8c-1.7 0-3.1 1.4-3.1 3.1s1.4 3.1 3.1 3.1 3.1-1.4 3.1-3.1-1.4-3.1-3.1-3.1m0 5.2c-1.1 0-2.1-.9-2.1-2s.9-2 2.1-2c1.1 0 2 .9 2 2s-.9 2-2 2m12.6-5.2c-1.7 0-3.1 1.4-3.1 3.1s1.4 3.1 3.1 3.1 3.1-1.4 3.1-3.1c.1-1.7-1.3-3.1-3.1-3.1m0 5.2c-1.1 0-2.1-.9-2.1-2s.9-2 2.1-2c1.1 0 2 .9 2 2 .1 1.1-.8 2-2 2m5.1 10.8c.3-1.3 1.2-2.5 1.2-2.5h-4.2c-2.4-1.5-5.2-2.3-8.4-2.3-3.3 0-6.3.8-8.6 2.4h-4s.9 1.3 1.2 2.5c-.8 1-1.2 2.3-1.2 3.7 0 3.5 2.8 6.3 6.3 6.3 2 0 3.8-.9 4.9-2.4l1.3 2 1.4-2c.6.8 1.4 1.4 2.3 1.8 1.5.7 3.3.8 4.8.2 3.3-1.2 5-4.9 3.7-8.1 0-.6-.3-1.1-.7-1.6m-5.3-2.5c-.7 0-1.3.1-2 .4-1.6.6-2.9 1.8-3.6 3.3-.3.7-.5 1.4-.6 2.2-.2-3.2-2.9-5.8-6.2-5.9 1.8-.8 3.9-1.2 6.2-1.2 2.4-.1 4.4.3 6.2 1.2m-12.4 11.3c-2.8 0-5.1-2.3-5.1-5 0-2.8 2.3-5.1 5.1-5.1s5.1 2.3 5.1 5.1c0 2.7-2.3 5-5.1 5m14.4-.3c-1.3.5-2.6.4-3.9-.2-1.2-.6-2.2-1.6-2.6-2.8-.5-1.3-.4-2.6.1-3.9.6-1.2 1.6-2.2 2.8-2.6 2.6-1 5.5.4 6.5 3 1.1 2.6-.3 5.6-2.9 6.5m-14.4-7.9c-1.7 0-3.1 1.4-3.1 3.1s1.4 3.1 3.1 3.1 3.1-1.4 3.1-3.1-1.4-3.1-3.1-3.1m0 5.1c-1.1 0-2.1-.9-2.1-2s.9-2 2.1-2c1.1 0 2 .9 2 2s-.9 2-2 2m12.6-5.1c-1.7 0-3.1 1.4-3.1 3.1s1.4 3.1 3.1 3.1 3.1-1.4 3.1-3.1c.1-1.7-1.3-3.1-3.1-3.1m0 5.1c-1.1 0-2.1-.9-2.1-2s.9-2 2.1-2c1.1 0 2 .9 2 2 .1 1.1-.8 2-2 2m5.1 10.9c.3-1.3 1.2-2.5 1.2-2.5h-4.2c-2.4-1.5-5.2-2.3-8.4-2.3-3.3 0-6.3.8-8.6 2.4h-4s.9 1.3 1.2 2.5c-.7.9-1.2 2.2-1.2 3.6 0 3.5 2.8 6.3 6.3 6.3 2 0 3.8-.9 4.9-2.4l1.3 2 1.4-2c.6.8 1.4 1.4 2.3 1.8 1.5.7 3.3.8 4.8.2 3.3-1.2 5-4.9 3.7-8.1 0-.5-.3-1.1-.7-1.5m-5.3-2.6c-.7 0-1.3.1-2 .4-1.6.6-2.9 1.8-3.6 3.3-.3.7-.5 1.4-.6 2.2-.2-3.2-2.9-5.8-6.2-5.9 1.8-.8 3.9-1.2 6.2-1.2 2.4 0 4.4.4 6.2 1.2m-12.4 11.4c-2.8 0-5.1-2.3-5.1-5 0-2.8 2.3-5.1 5.1-5.1s5.1 2.3 5.1 5.1c0 2.7-2.3 5-5.1 5m14.4-.3c-1.3.5-2.6.4-3.9-.2-1.2-.6-2.2-1.6-2.6-2.8-.5-1.3-.4-2.6.1-3.9.6-1.2 1.6-2.2 2.8-2.6 2.6-1 5.5.4 6.5 3 1.1 2.6-.3 5.5-2.9 6.5m-14.4-8c-1.7 0-3.1 1.4-3.1 3.1s1.4 3.1 3.1 3.1 3.1-1.4 3.1-3.1-1.4-3.1-3.1-3.1m0 5.2c-1.1 0-2.1-.9-2.1-2s.9-2 2.1-2c1.1 0 2 .9 2 2s-.9 2-2 2m12.6-5.2c-1.7 0-3.1 1.4-3.1 3.1s1.4 3.1 3.1 3.1 3.1-1.4 3.1-3.1c.1-1.7-1.3-3.1-3.1-3.1m0 5.2c-1.1 0-2.1-.9-2.1-2s.9-2 2.1-2c1.1 0 2 .9 2 2 .1 1.1-.8 2-2 2m5.1 10.8c.3-1.3 1.2-2.5 1.2-2.5h-4.2c-2.4-1.5-5.2-2.3-8.4-2.3-3.3 0-6.3.8-8.6 2.4h-4s.9 1.3 1.2 2.5c-.8 1-1.2 2.3-1.2 3.7 0 3.5 2.8 6.3 6.3 6.3 2 0 3.8-.9 4.9-2.4l1.3 2 1.4-2c.6.8 1.4 1.4 2.3 1.8 1.5.7 3.3.8 4.8.2 3.3-1.2 5-4.9 3.7-8.1 0-.6-.3-1.1-.7-1.6m-5.3-2.5c-.7 0-1.3.1-2 .4-1.6.6-2.9 1.8-3.6 3.3-.3.7-.5 1.4-.6 2.2-.2-3.2-2.9-5.8-6.2-5.9 1.8-.8 3.9-1.2 6.2-1.2 2.4 0 4.4.4 6.2 1.2m-12.4 11.3c-2.8 0-5.1-2.3-5.1-5 0-2.8 2.3-5.1 5.1-5.1s5.1 2.3 5.1 5.1-2.3 5-5.1 5m14.4-.3c-1.3.5-2.6.4-3.9-.2-1.2-.6-2.2-1.6-2.6-2.8-.5-1.3-.4-2.6.1-3.9.6-1.2 1.6-2.2 2.8-2.6 2.6-1 5.5.4 6.5 3 1.1 2.7-.3 5.6-2.9 6.5m-14.4-7.9c-1.7 0-3.1 1.4-3.1 3.1s1.4 3.1 3.1 3.1 3.1-1.4 3.1-3.1-1.4-3.1-3.1-3.1m0 5.2c-1.1 0-2.1-.9-2.1-2s.9-2 2.1-2c1.1 0 2 .9 2 2 0 1-.9 2-2 2m12.6-5.2c-1.7 0-3.1 1.4-3.1 3.1s1.4 3.1 3.1 3.1 3.1-1.4 3.1-3.1c.1-1.7-1.3-3.1-3.1-3.1m0 5.2c-1.1 0-2.1-.9-2.1-2s.9-2 2.1-2c1.1 0 2 .9 2 2 .1 1-.8 2-2 2m5.1 10.8c.3-1.3 1.2-2.5 1.2-2.5h-4.2c-2.4-1.5-5.2-2.3-8.4-2.3-3.3 0-6.3.8-8.6 2.4h-4s.9 1.3 1.2 2.5c-.8 1-1.2 2.3-1.2 3.7 0 3.5 2.8 6.3 6.3 6.3 2 0 3.8-.9 4.9-2.4l1.3 2 1.4-2c.6.8 1.4 1.4 2.3 1.8 1.5.7 3.3.8 4.8.2 3.3-1.2 5-4.9 3.7-8.1 0-.6-.3-1.1-.7-1.6m-5.3-2.6c-.7 0-1.3.1-2 .4-1.6.6-2.9 1.8-3.6 3.3-.3.7-.5 1.4-.6 2.2-.2-3.2-2.9-5.8-6.2-5.9 1.8-.8 3.9-1.2 6.2-1.2 2.4 0 4.4.4 6.2 1.2m-12.4 11.4c-2.8 0-5.1-2.3-5.1-5 0-2.8 2.3-5.1 5.1-5.1s5.1 2.3 5.1 5.1c0 2.7-2.3 5-5.1 5m14.4-.3c-1.3.5-2.6.4-3.9-.2-1.2-.6-2.2-1.6-2.6-2.8-.5-1.3-.4-2.6.1-3.9.6-1.2 1.6-2.2 2.8-2.6 2.6-1 5.5.4 6.5 3 1.1 2.6-.3 5.5-2.9 6.5m-14.4-8c-1.7 0-3.1 1.4-3.1 3.1s1.4 3.1 3.1 3.1 3.1-1.4 3.1-3.1-1.4-3.1-3.1-3.1m0 5.2c-1.1 0-2.1-.9-2.1-2s.9-2 2.1-2c1.1 0 2 .9 2 2s-.9 2-2 2m12.6-5.2c-1.7 0-3.1 1.4-3.1 3.1s1.4 3.1 3.1 3.1 3.1-1.4 3.1-3.1c.1-1.7-1.3-3.1-3.1-3.1m0 5.2c-1.1 0-2.1-.9-2.1-2s.9-2 2.1-2c1.1 0 2 .9 2 2 .1 1.1-.8 2-2 2m5.1 10.8c.3-1.3 1.2-2.5 1.2-2.5h-4.2c-2.4-1.5-5.2-2.3-8.4-2.3-3.3 0-6.3.8-8.6 2.4h-4s.9 1.3 1.2 2.5c-.8 1-1.2 2.3-1.2 3.7 0 3.5 2.8 6.3 6.3 6.3 2 0 3.8-.9 4.9-2.4l1.3 2 1.4-2c.6.8 1.4 1.4 2.3 1.8 1.5.7 3.3.8 4.8.2 3.3-1.2 5-4.9 3.7-8.1 0-.6-.3-1.1-.7-1.6m-5.3-2.5c-.7 0-1.3.1-2 .4-1.6.6-2.9 1.8-3.6 3.3-.3.7-.5 1.4-.6 2.2-.2-3.2-2.9-5.8-6.2-5.9 1.8-.8 3.9-1.2 6.2-1.2 2.4 0 4.4.4 6.2 1.2m-12.4 11.3c-2.8 0-5.1-2.3-5.1-5 0-2.8 2.3-5.1 5.1-5.1s5.1 2.3 5.1 5.1-2.3 5-5.1 5m14.4-.3c-1.3.5-2.6.4-3.9-.2-1.2-.6-2.2-1.6-2.6-2.8-.5-1.3-.4-2.6.1-3.9.6-1.2 1.6-2.2 2.8-2.6 2.6-1 5.5.4 6.5 3 1.1 2.7-.3 5.6-2.9 6.5m-14.4-7.9c-1.7 0-3.1 1.4-3.1 3.1s1.4 3.1 3.1 3.1 3.1-1.4 3.1-3.1-1.4-3.1-3.1-3.1m0 5.2c-1.1 0-2.1-.9-2.1-2s.9-2 2.1-2c1.1 0 2 .9 2 2s-.9 2-2 2m12.6-5.2c-1.7 0-3.1 1.4-3.1 3.1s1.4 3.1 3.1 3.1 3.1-1.4 3.1-3.1c.1-1.7-1.3-3.1-3.1-3.1m0 5.2c-1.1 0-2.1-.9-2.1-2s.9-2 2.1-2c1.1 0 2 .9 2 2 .1 1.1-.8 2-2 2m5.1 10.8c.3-1.3 1.2-2.5 1.2-2.5h-4.2c-2.4-1.5-5.2-2.3-8.4-2.3-3.3 0-6.3.8-8.6 2.4h-4s.9 1.3 1.2 2.5c-.8 1-1.2 2.3-1.2 3.7 0 3.5 2.8 6.3 6.3 6.3 2 0 3.8-.9 4.9-2.4l1.3 2 1.4-2c.6.8 1.4 1.4 2.3 1.8 1.5.7 3.3.8 4.8.2 3.3-1.2 5-4.9 3.7-8.1 0-.6-.3-1.1-.7-1.6m-5.3-2.6c-.7 0-1.3.1-2 .4-1.6.6-2.9 1.8-3.6 3.3-.3.7-.5 1.4-.6 2.2-.2-3.2-2.9-5.8-6.2-5.9 1.8-.8 3.9-1.2 6.2-1.2 2.4 0 4.4.4 6.2 1.2m-12.4 11.4c-2.8 0-5.1-2.3-5.1-5 0-2.8 2.3-5.1 5.1-5.1s5.1 2.3 5.1 5.1c0 2.7-2.3 5-5.1 5m14.4-.3c-1.3.5-2.6.4-3.9-.2-1.2-.6-2.2-1.6-2.6-2.8-.5-1.3-.4-2.6.1-3.9.6-1.2 1.6-2.2 2.8-2.6 2.6-1 5.5.4 6.5 3 1.1 2.6-.3 5.5-2.9 6.5m-14.4-7.9c-1.7 0-3.1 1.4-3.1 3.1s1.4 3.1 3.1 3.1 3.1-1.4 3.1-3.1-1.4-3.1-3.1-3.1m0 5.1c-1.1 0-2.1-.9-2.1-2s.9-2 2.1-2c1.1 0 2 .9 2 2s-.9 2-2 2m12.6-5.1c-1.7 0-3.1 1.4-3.1 3.1s1.4 3.1 3.1 3.1 3.1-1.4 3.1-3.1c.1-1.7-1.3-3.1-3.1-3.1m0 5.1c-1.1 0-2.1-.9-2.1-2s.9-2 2.1-2c1.1 0 2 .9 2 2 .1 1.1-.8 2-2 2" fill="#010101"/><path d="m20 41.7c0 .6-.5 1.1-1 1.1-.6 0-1.1-.5-1.1-1.1s.5-1.1 1.1-1.1c.5 0 1 .5 1 1.1m0-33.1c0 .6-.5 1.1-1 1.1-.6 0-1.1-.5-1.1-1.1s.5-1.1 1.1-1.1c.5 0 1 .5 1 1.1m0 16.5c0 .6-.5 1.1-1 1.1-.6 0-1.1-.5-1.1-1.1s.5-1.1 1.1-1.1c.5.1 1 .5 1 1.1m13.7-22.5c-3.3 0-6 2.7-6 6s2.7 6 6 6 6-2.7 6-6-2.7-6-6-6zm0 10.8c-2.6 0-4.8-2.1-4.8-4.8s2.2-4.8 4.8-4.8 4.8 2.1 4.8 4.8-2.2 4.8-4.8 4.8zm12.2-10.8c-3.3 0-6 2.7-6 6s2.7 6 6 6 6-2.7 6-6-2.7-6-6-6zm0 10.8c-2.6 0-4.8-2.1-4.8-4.8s2.2-4.8 4.8-4.8 4.8 2.1 4.8 4.8-2.1 4.8-4.8 4.8zm12.3-10.8c-3.3 0-6 2.7-6 6s2.7 6 6 6 6-2.7 6-6-2.7-6-6-6zm0 10.8c-2.6 0-4.8-2.1-4.8-4.8s2.2-4.8 4.8-4.8 4.8 2.2 4.8 4.8-2.2 4.8-4.8 4.8zm12.2-10.8c-3.3 0-6 2.7-6 6s2.7 6 6 6 6-2.7 6-6-2.7-6-6-6zm0 10.8c-2.6 0-4.8-2.1-4.8-4.8s2.2-4.8 4.8-4.8 4.8 2.1 4.8 4.8-2.1 4.8-4.8 4.8zm12.3-10.8c-3.3 0-6 2.7-6 6s2.7 6 6 6 6-2.7 6-6-2.7-6-6-6zm0 10.8c-2.6 0-4.8-2.1-4.8-4.8s2.2-4.8 4.8-4.8 4.8 2.1 4.8 4.8-2.2 4.8-4.8 4.8zm-46-4.8c0 1.7-1.3 3-3 3s-3-1.3-3-3 1.3-3 3-3 3 1.4 3 3zm12.2 0c0 1.7-1.3 3-3 3s-3-1.3-3-3 1.3-3 3-3 3 1.4 3 3zm12.3 0c0 1.7-1.3 3-3 3s-3-1.3-3-3 1.3-3 3-3 3 1.4 3 3zm12.2 0c0 1.7-1.3 3-3 3s-3-1.3-3-3 1.3-3 3-3 3 1.4 3 3zm12.3 0c0 1.7-1.3 3-3 3s-3-1.3-3-3 1.3-3 3-3 3 1.4 3 3zm-52 10.6c-3.3 0-6 2.7-6 6s2.7 6 6 6 6-2.7 6-6-2.7-6-6-6zm0 10.8c-2.6 0-4.8-2.1-4.8-4.8s2.2-4.8 4.8-4.8 4.8 2.1 4.8 4.8-2.2 4.8-4.8 4.8zm12.2-10.8c-3.3 0-6 2.7-6 6s2.7 6 6 6 6-2.7 6-6-2.7-6-6-6zm0 10.8c-2.6 0-4.8-2.1-4.8-4.8s2.2-4.8 4.8-4.8 4.8 2.1 4.8 4.8-2.1 4.8-4.8 4.8zm12.3-10.8c-3.3 0-6 2.7-6 6s2.7 6 6 6 6-2.7 6-6-2.7-6-6-6zm0 10.8c-2.6 0-4.8-2.1-4.8-4.8s2.2-4.8 4.8-4.8 4.8 2.1 4.8 4.8-2.2 4.8-4.8 4.8zm12.2-10.8c-3.3 0-6 2.7-6 6s2.7 6 6 6 6-2.7 6-6-2.7-6-6-6zm0 10.8c-2.6 0-4.8-2.1-4.8-4.8s2.2-4.8 4.8-4.8 4.8 2.1 4.8 4.8-2.1 4.8-4.8 4.8zm12.3-10.8c-3.3 0-6 2.7-6 6s2.7 6 6 6 6-2.7 6-6-2.7-6-6-6zm0 10.8c-2.6 0-4.8-2.1-4.8-4.8s2.2-4.8 4.8-4.8 4.8 2.1 4.8 4.8-2.2 4.8-4.8 4.8zm-46-4.8c0 1.7-1.3 3-3 3s-3-1.3-3-3 1.3-3 3-3 3 1.3 3 3zm12.2 0c0 1.7-1.3 3-3 3s-3-1.3-3-3 1.3-3 3-3 3 1.3 3 3zm12.3 0c0 1.7-1.3 3-3 3s-3-1.3-3-3 1.3-3 3-3 3 1.3 3 3zm12.2 0c0 1.7-1.3 3-3 3s-3-1.3-3-3 1.3-3 3-3 3 1.3 3 3zm9.3 3c-1.7 0-3-1.3-3-3s1.3-3 3-3zm-49 7.5c-3.3 0-6 2.7-6 6s2.7 6 6 6 6-2.7 6-6-2.7-6-6-6zm0 10.8c-2.6 0-4.8-2.1-4.8-4.8s2.2-4.8 4.8-4.8 4.8 2.1 4.8 4.8-2.2 4.8-4.8 4.8zm12.2-10.8c-3.3 0-6 2.7-6 6s2.7 6 6 6 6-2.7 6-6-2.7-6-6-6zm0 10.8c-2.6 0-4.8-2.1-4.8-4.8s2.2-4.8 4.8-4.8 4.8 2.1 4.8 4.8-2.1 4.8-4.8 4.8zm12.3-10.8c-3.3 0-6 2.7-6 6s2.7 6 6 6 6-2.7 6-6-2.7-6-6-6zm0 10.8c-2.6 0-4.8-2.1-4.8-4.8s2.2-4.8 4.8-4.8 4.8 2.1 4.8 4.8-2.2 4.8-4.8 4.8zm12.2-10.8c-3.3 0-6 2.7-6 6s2.7 6 6 6 6-2.7 6-6-2.7-6-6-6zm0 10.8c-2.6 0-4.8-2.1-4.8-4.8s2.2-4.8 4.8-4.8 4.8 2.1 4.8 4.8-2.1 4.8-4.8 4.8zm12.3-10.8c-3.3 0-6 2.7-6 6s2.7 6 6 6 6-2.7 6-6-2.7-6-6-6zm0 10.8c-2.6 0-4.8-2.1-4.8-4.8s2.2-4.8 4.8-4.8 4.8 2.1 4.8 4.8-2.2 4.8-4.8 4.8zm-46-4.8c0 1.7-1.3 3-3 3s-3-1.3-3-3 1.3-3 3-3 3 1.4 3 3zm12.2 0c0 1.7-1.3 3-3 3s-3-1.3-3-3 1.3-3 3-3 3 1.4 3 3zm12.3 0c0 1.7-1.3 3-3 3s-3-1.3-3-3 1.3-3 3-3 3 1.4 3 3zm12.2 0c0 1.7-1.3 3-3 3s-3-1.3-3-3 1.3-3 3-3 3 1.4 3 3zm-53.4 16.5c0 .6-.5 1.1-1 1.1-.6 0-1.1-.5-1.1-1.1s.5-1.1 1.1-1.1c.5.1 1 .6 1 1.1m13.7-5.9c-3.3 0-6 2.7-6 6s2.7 6 6 6 6-2.7 6-6-2.7-6-6-6zm0 10.8c-2.6 0-4.8-2.1-4.8-4.8s2.2-4.8 4.8-4.8 4.8 2.1 4.8 4.8-2.2 4.8-4.8 4.8zm12.2-10.8c-3.3 0-6 2.7-6 6s2.7 6 6 6 6-2.7 6-6-2.7-6-6-6zm0 10.8c-2.6 0-4.8-2.1-4.8-4.8s2.2-4.8 4.8-4.8 4.8 2.1 4.8 4.8-2.1 4.8-4.8 4.8zm12.3-10.8c-3.3 0-6 2.7-6 6s2.7 6 6 6 6-2.7 6-6-2.7-6-6-6zm0 10.8c-2.6 0-4.8-2.1-4.8-4.8s2.2-4.8 4.8-4.8 4.8 2.1 4.8 4.8-2.2 4.8-4.8 4.8zm12.2-10.8c-3.3 0-6 2.7-6 6s2.7 6 6 6 6-2.7 6-6-2.7-6-6-6zm0 10.8c-2.6 0-4.8-2.1-4.8-4.8s2.2-4.8 4.8-4.8 4.8 2.1 4.8 4.8-2.1 4.8-4.8 4.8zm12.3-10.8c-3.3 0-6 2.7-6 6s2.7 6 6 6 6-2.7 6-6-2.7-6-6-6zm0 10.8c-2.6 0-4.8-2.1-4.8-4.8s2.2-4.8 4.8-4.8 4.8 2.1 4.8 4.8-2.2 4.8-4.8 4.8zm-46-4.8c0 1.7-1.3 3-3 3s-3-1.3-3-3 1.3-3 3-3 3 1.3 3 3zm12.2 0c0 1.7-1.3 3-3 3s-3-1.3-3-3 1.3-3 3-3 3 1.3 3 3zm12.3 0c0 1.7-1.3 3-3 3s-3-1.3-3-3 1.3-3 3-3 3 1.3 3 3zm9.2 3c-1.7 0-3-1.3-3-3s1.3-3 3-3zm-50.4 13.5c0 .6-.5 1.1-1 1.1-.6 0-1.1-.5-1.1-1.1s.5-1.1 1.1-1.1c.5 0 1 .5 1 1.1m13.7-5.9c-3.3 0-6 2.7-6 6s2.7 6 6 6 6-2.7 6-6-2.7-6-6-6zm0 10.7c-2.6 0-4.8-2.1-4.8-4.8s2.2-4.8 4.8-4.8 4.8 2.1 4.8 4.8-2.2 4.8-4.8 4.8zm12.2-10.7c-3.3 0-6 2.7-6 6s2.7 6 6 6 6-2.7 6-6-2.7-6-6-6zm0 10.7c-2.6 0-4.8-2.1-4.8-4.8s2.2-4.8 4.8-4.8 4.8 2.1 4.8 4.8-2.1 4.8-4.8 4.8zm12.3-10.7c-3.3 0-6 2.7-6 6s2.7 6 6 6 6-2.7 6-6-2.7-6-6-6zm0 10.7c-2.6 0-4.8-2.1-4.8-4.8s2.2-4.8 4.8-4.8 4.8 2.1 4.8 4.8-2.2 4.8-4.8 4.8zm12.2-10.7c-3.3 0-6 2.7-6 6s2.7 6 6 6 6-2.7 6-6-2.7-6-6-6zm0 10.7c-2.6 0-4.8-2.1-4.8-4.8s2.2-4.8 4.8-4.8 4.8 2.1 4.8 4.8-2.1 4.8-4.8 4.8zm12.3-10.7c-3.3 0-6 2.7-6 6s2.7 6 6 6 6-2.7 6-6-2.7-6-6-6zm0 10.7c-2.6 0-4.8-2.1-4.8-4.8s2.2-4.8 4.8-4.8 4.8 2.1 4.8 4.8-2.2 4.8-4.8 4.8zm-46-4.7c0 1.7-1.3 3-3 3s-3-1.3-3-3 1.3-3 3-3 3 1.3 3 3zm12.2 0c0 1.7-1.3 3-3 3s-3-1.3-3-3 1.3-3 3-3 3 1.3 3 3zm12.3 0c0 1.7-1.3 3-3 3s-3-1.3-3-3 1.3-3 3-3 3 1.3 3 3zm-41.2 16.5c0 .6-.5 1.1-1 1.1-.6 0-1.1-.5-1.1-1.1s.5-1.1 1.1-1.1c.5 0 1 .5 1 1.1m13.7-6c-3.3 0-6 2.7-6 6s2.7 6 6 6 6-2.7 6-6-2.7-6-6-6zm0 10.8c-2.6 0-4.8-2.1-4.8-4.8s2.2-4.8 4.8-4.8 4.8 2.1 4.8 4.8-2.2 4.8-4.8 4.8zm12.2-10.8c-3.3 0-6 2.7-6 6s2.7 6 6 6 6-2.7 6-6-2.7-6-6-6zm0 10.8c-2.6 0-4.8-2.1-4.8-4.8s2.2-4.8 4.8-4.8 4.8 2.1 4.8 4.8-2.1 4.8-4.8 4.8zm12.3-10.8c-3.3 0-6 2.7-6 6s2.7 6 6 6 6-2.7 6-6-2.7-6-6-6zm0 10.8c-2.6 0-4.8-2.1-4.8-4.8s2.2-4.8 4.8-4.8 4.8 2.1 4.8 4.8-2.2 4.8-4.8 4.8zm12.2-10.8c-3.3 0-6 2.7-6 6s2.7 6 6 6 6-2.7 6-6-2.7-6-6-6zm0 10.8c-2.6 0-4.8-2.1-4.8-4.8s2.2-4.8 4.8-4.8 4.8 2.1 4.8 4.8-2.1 4.8-4.8 4.8zm12.3-10.8c-3.3 0-6 2.7-6 6s2.7 6 6 6 6-2.7 6-6-2.7-6-6-6zm0 10.8c-2.6 0-4.8-2.1-4.8-4.8s2.2-4.8 4.8-4.8 4.8 2.1 4.8 4.8-2.2 4.8-4.8 4.8zm-46-4.8c0 1.7-1.3 3-3 3s-3-1.3-3-3 1.3-3 3-3 3 1.4 3 3zm12.2 0c0 1.7-1.3 3-3 3s-3-1.3-3-3 1.3-3 3-3 3 1.4 3 3zm9.3 3c-1.7 0-3-1.3-3-3s1.3-3 3-3zm-38.2 13.5c0 .6-.5 1.1-1 1.1-.6 0-1.1-.5-1.1-1.1s.5-1.1 1.1-1.1c.5.1 1 .5 1 1.1m13.7-5.9c-3.3 0-6 2.7-6 6s2.7 6 6 6 6-2.7 6-6-2.7-6-6-6zm0 10.8c-2.6 0-4.8-2.1-4.8-4.8s2.2-4.8 4.8-4.8 4.8 2.1 4.8 4.8-2.2 4.8-4.8 4.8zm12.2-10.8c-3.3 0-6 2.7-6 6s2.7 6 6 6 6-2.7 6-6-2.7-6-6-6zm0 10.8c-2.6 0-4.8-2.1-4.8-4.8s2.2-4.8 4.8-4.8 4.8 2.1 4.8 4.8-2.1 4.8-4.8 4.8zm12.3-10.8c-3.3 0-6 2.7-6 6s2.7 6 6 6 6-2.7 6-6-2.7-6-6-6zm0 10.8c-2.6 0-4.8-2.1-4.8-4.8s2.2-4.8 4.8-4.8 4.8 2.1 4.8 4.8-2.2 4.8-4.8 4.8zm12.2-10.8c-3.3 0-6 2.7-6 6s2.7 6 6 6 6-2.7 6-6-2.7-6-6-6zm0 10.8c-2.6 0-4.8-2.1-4.8-4.8s2.2-4.8 4.8-4.8 4.8 2.1 4.8 4.8-2.1 4.8-4.8 4.8zm12.3-10.8c-3.3 0-6 2.7-6 6s2.7 6 6 6 6-2.7 6-6-2.7-6-6-6zm0 10.8c-2.6 0-4.8-2.1-4.8-4.8s2.2-4.8 4.8-4.8 4.8 2.1 4.8 4.8-2.2 4.8-4.8 4.8zm-46-4.8c0 1.7-1.3 3-3 3s-3-1.3-3-3 1.3-3 3-3 3 1.3 3 3zm12.2 0c0 1.7-1.3 3-3 3s-3-1.3-3-3 1.3-3 3-3 3 1.3 3 3zm-28.9 16.5c0 .6-.5 1.1-1 1.1-.6 0-1.1-.5-1.1-1.1s.5-1.1 1.1-1.1c.5 0 1 .5 1 1.1m13.7-6c-3.3 0-6 2.7-6 6s2.7 6 6 6 6-2.7 6-6-2.7-6-6-6zm0 10.8c-2.6 0-4.8-2.1-4.8-4.8s2.2-4.8 4.8-4.8 4.8 2.1 4.8 4.8-2.2 4.8-4.8 4.8zm12.2-10.8c-3.3 0-6 2.7-6 6s2.7 6 6 6 6-2.7 6-6-2.7-6-6-6zm0 10.8c-2.6 0-4.8-2.1-4.8-4.8s2.2-4.8 4.8-4.8 4.8 2.1 4.8 4.8-2.1 4.8-4.8 4.8zm12.3-10.8c-3.3 0-6 2.7-6 6s2.7 6 6 6 6-2.7 6-6-2.7-6-6-6zm0 10.8c-2.6 0-4.8-2.1-4.8-4.8s2.2-4.8 4.8-4.8 4.8 2.1 4.8 4.8-2.2 4.8-4.8 4.8zm12.2-10.8c-3.3 0-6 2.7-6 6s2.7 6 6 6 6-2.7 6-6-2.7-6-6-6zm0 10.8c-2.6 0-4.8-2.1-4.8-4.8s2.2-4.8 4.8-4.8 4.8 2.1 4.8 4.8-2.1 4.8-4.8 4.8zm12.3-10.8c-3.3 0-6 2.7-6 6s2.7 6 6 6 6-2.7 6-6-2.7-6-6-6zm0 10.8c-2.6 0-4.8-2.1-4.8-4.8s2.2-4.8 4.8-4.8 4.8 2.1 4.8 4.8-2.2 4.8-4.8 4.8zm-46-4.8c0 1.7-1.3 3-3 3s-3-1.3-3-3 1.3-3 3-3 3 1.4 3 3zm9.1 3.1c-1.7 0-3-1.3-3-3s1.3-3 3-3zm-25.8 13.4c0 .6-.5 1.1-1 1.1-.6 0-1.1-.5-1.1-1.1s.5-1.1 1.1-1.1c.5.1 1 .5 1 1.1m13.7-5.9c-3.3 0-6 2.7-6 6s2.7 6 6 6 6-2.7 6-6-2.7-6-6-6zm0 10.8c-2.6 0-4.8-2.1-4.8-4.8s2.2-4.8 4.8-4.8 4.8 2.1 4.8 4.8-2.2 4.8-4.8 4.8zm12.2-10.8c-3.3 0-6 2.7-6 6s2.7 6 6 6 6-2.7 6-6-2.7-6-6-6zm0 10.8c-2.6 0-4.8-2.1-4.8-4.8s2.2-4.8 4.8-4.8 4.8 2.1 4.8 4.8-2.1 4.8-4.8 4.8zm12.3-10.8c-3.3 0-6 2.7-6 6s2.7 6 6 6 6-2.7 6-6-2.7-6-6-6zm0 10.8c-2.6 0-4.8-2.1-4.8-4.8s2.2-4.8 4.8-4.8 4.8 2.1 4.8 4.8-2.2 4.8-4.8 4.8zm12.2-10.8c-3.3 0-6 2.7-6 6s2.7 6 6 6 6-2.7 6-6-2.7-6-6-6zm0 10.8c-2.6 0-4.8-2.1-4.8-4.8s2.2-4.8 4.8-4.8 4.8 2.1 4.8 4.8-2.1 4.8-4.8 4.8zm12.3-10.8c-3.3 0-6 2.7-6 6s2.7 6 6 6 6-2.7 6-6-2.7-6-6-6zm0 10.8c-2.6 0-4.8-2.1-4.8-4.8s2.2-4.8 4.8-4.8 4.8 2.1 4.8 4.8-2.2 4.8-4.8 4.8zm-46-4.8c0 1.7-1.3 3-3 3s-3-1.3-3-3 1.3-3 3-3 3 1.3 3 3zm-16.7 16.5c0 .6-.5 1.1-1 1.1-.6 0-1.1-.5-1.1-1.1s.5-1.1 1.1-1.1c.5 0 1 .5 1 1.1m13.7-6c-3.3 0-6 2.7-6 6s2.7 6 6 6 6-2.7 6-6-2.7-6-6-6zm0 10.8c-2.6 0-4.8-2.1-4.8-4.8s2.2-4.8 4.8-4.8 4.8 2.1 4.8 4.8-2.2 4.8-4.8 4.8zm12.2-10.8c-3.3 0-6 2.7-6 6s2.7 6 6 6 6-2.7 6-6-2.7-6-6-6zm0 10.8c-2.6 0-4.8-2.1-4.8-4.8s2.2-4.8 4.8-4.8 4.8 2.1 4.8 4.8-2.1 4.8-4.8 4.8zm12.3-10.8c-3.3 0-6 2.7-6 6s2.7 6 6 6 6-2.7 6-6-2.7-6-6-6zm0 10.8c-2.6 0-4.8-2.1-4.8-4.8s2.2-4.8 4.8-4.8 4.8 2.1 4.8 4.8-2.2 4.8-4.8 4.8zm12.2-10.8c-3.3 0-6 2.7-6 6s2.7 6 6 6 6-2.7 6-6-2.7-6-6-6zm0 10.8c-2.6 0-4.8-2.1-4.8-4.8s2.2-4.8 4.8-4.8 4.8 2.1 4.8 4.8-2.1 4.8-4.8 4.8zm12.3-10.8c-3.3 0-6 2.7-6 6s2.7 6 6 6 6-2.7 6-6-2.7-6-6-6zm0 10.8c-2.6 0-4.8-2.1-4.8-4.8s2.2-4.8 4.8-4.8 4.8 2.1 4.8 4.8-2.2 4.8-4.8 4.8zm-49-1.7c-1.7 0-3-1.3-3-3s1.3-3 3-3z" fill="#579241"/></svg>