<svg height="38" viewBox="0 0 163 38" width="163" xmlns="http://www.w3.org/2000/svg"><g fill-rule="evenodd"><path d="m44.736 35.8h-44.353v-4.675h44.353z" fill="#ffd400"/><path d="m14.869 23.6c-1.366 3.84-3.166 5.086-6.794 5.086a9.754 9.754 0 0 1 -3.588-.686v-4.507a8.945 8.945 0 0 0 3.187.648c1.61 0 2.291-.817 2.291-1.868a4.926 4.926 0 0 0 -.479-1.678c-.326-.845-7.736-19.786-7.736-19.786h5.494l5.351 15.9h.068l4.751-15.9h5.259zm9.414-22.79h5.035v1.78h.082a9.14 9.14 0 0 1 6.209-2.272c5.286 0 9.265 4.92 9.265 10.958 0 5.556-3.264 10.961-9.847 10.961a7.571 7.571 0 0 1 -5.713-2.077v8.281h-5.03v-27.631zm15.308 10.463c-.041-3.018-1.421-6.329-5.217-6.329s-5.177 3.312-5.22 6.329c.043 3.018 1.422 6.328 5.22 6.328s5.176-3.309 5.217-6.328zm26.645-7.121h-3.479v10.475h-2.357v-10.475h-3.4v-2.145h9.243v2.145zm2.914-2.145v4.593a3.892 3.892 0 0 1 2.837-1.177 3.263 3.263 0 0 1 2.444.966 3.6 3.6 0 0 1 .749 2.717v5.52h-2.105v-4.914a3.782 3.782 0 0 0 -.142-1.269 1.514 1.514 0 0 0 -1.552-.983 2.266 2.266 0 0 0 -2.159 1.627 5.544 5.544 0 0 0 -.071 1.43v4.11h-2.143v-12.62h2.141zm16.344 10.619a5.192 5.192 0 0 1 -4.354 2.274 4.413 4.413 0 0 1 -4.586-4.773c0-3 1.927-4.7 4.442-4.7a4.024 4.024 0 0 1 3.516 1.673 6.706 6.706 0 0 1 .909 3.486h-6.6a2.41 2.41 0 0 0 2.534 2.219 2.6 2.6 0 0 0 2.322-1.234zm-2.423-3.612a1.912 1.912 0 0 0 -1.944-1.879h-.054a2.112 2.112 0 0 0 -2.181 1.877h4.179zm8.481-7.007h4.014c1.677.018 2.8.018 3.908.91a3.844 3.844 0 0 1 1.391 3.111 3.455 3.455 0 0 1 -2.481 3.472l2.8 5.131h-2.694l-2.5-4.683h-2.104v4.683h-2.337v-12.624zm2.337 2.038v3.955h.821c.808 0 1.105-.018 1.552-.035a1.967 1.967 0 0 0 2.213-1.949 1.808 1.808 0 0 0 -1-1.7 5.782 5.782 0 0 0 -2.5-.268h-1.087zm16.934 8.581a5.193 5.193 0 0 1 -4.354 2.27 4.41 4.41 0 0 1 -4.6-4.214 4.54 4.54 0 0 1 .011-.559c0-3 1.927-4.7 4.442-4.7a4.025 4.025 0 0 1 3.518 1.677 6.713 6.713 0 0 1 .908 3.486h-6.606a2.41 2.41 0 0 0 2.533 2.219 2.6 2.6 0 0 0 2.325-1.232zm-2.423-3.612a1.911 1.911 0 0 0 -1.944-1.879h-.054a2.112 2.112 0 0 0 -2.189 1.877h4.187zm3.427-.7a2.9 2.9 0 0 1 .357-1.341c.856-1.555 2.98-1.555 3.551-1.555a5.409 5.409 0 0 1 2.676.572 2.38 2.38 0 0 1 1.07 2.449v4.738a1.88 1.88 0 0 0 .381 1.446h-2.533c-.018-.214-.055-.572-.055-.7a4.192 4.192 0 0 1 -2.64.91c-2.019 0-3.23-1.252-3.23-2.789a2.7 2.7 0 0 1 .285-1.214 3.668 3.668 0 0 1 2.871-1.73 20.28 20.28 0 0 0 2.767-.661c0-.447-.037-1.358-1.515-1.358a1.9 1.9 0 0 0 -1.588.572 1.064 1.064 0 0 0 -.214.787zm5.514 1.859a6.184 6.184 0 0 1 -1.874.536c-.767.107-1.785.286-1.785 1.234a1.191 1.191 0 0 0 1.3 1.076 1.224 1.224 0 0 0 .134-.019 2.214 2.214 0 0 0 2.088-1.037 1.818 1.818 0 0 0 .125-.809v-.977h.011zm6.245-8.17v12.624h-2.159v-12.62h2.159zm-60.286 28.218v4.988h-2.319v-4.992l-4.219-7.633h2.658l2.726 5.237 2.765-5.237h2.625zm11.8 2.985a5.193 5.193 0 0 1 -4.353 2.27 4.413 4.413 0 0 1 -4.584-4.776c0-3 1.927-4.7 4.442-4.7a4.023 4.023 0 0 1 3.515 1.68 6.706 6.706 0 0 1 .909 3.486h-6.612a2.41 2.41 0 0 0 2.534 2.217 2.6 2.6 0 0 0 2.322-1.233zm-2.423-3.611a1.911 1.911 0 0 0 -1.942-1.879h-.056a2.112 2.112 0 0 0 -2.193 1.876h4.191zm5.871-7.007v12.62h-2.173v-12.624h2.159zm4.1 0v12.62h-2.169v-12.624h2.159zm6.052 12.888a4.515 4.515 0 0 1 -4.646-4.376q-.006-.2.005-.4a4.587 4.587 0 1 1 9.171-.193q0 .1 0 .193a4.453 4.453 0 0 1 -4.123 4.759q-.209.015-.419.01zm-.1-7.544c-1.339 0-2.3 1.073-2.3 2.717 0 1.842 1.125 2.86 2.409 2.86 1.553 0 2.337-1.358 2.284-2.843a2.506 2.506 0 0 0 -2.259-2.729q-.073-.007-.147-.009zm15.77-1.662h2.23l-2.691 8.93h-2.12l-1.606-5.7-1.716 5.7h-2.106l-2.588-8.939h2.227l1.552 6.114 1.66-6.114h1.909l1.641 6.114zm8.084-3.682h4.246a8.18 8.18 0 0 1 2.159.2 3.942 3.942 0 0 1 2.961 4 3.8 3.8 0 0 1 -3.028 3.986 9.139 9.139 0 0 1 -2.12.161h-1.86v4.273h-2.372v-12.624zm2.373 2.023v4.377h1.7a5.277 5.277 0 0 0 1.339-.107 2.048 2.048 0 0 0 1.552-2.145 2.091 2.091 0 0 0 -.624-1.609 3.261 3.261 0 0 0 -2.177-.518h-1.8zm7.834 4.291a2.9 2.9 0 0 1 .358-1.341c.856-1.561 2.981-1.561 3.551-1.561a5.4 5.4 0 0 1 2.675.572 2.38 2.38 0 0 1 1.071 2.449v4.737a1.879 1.879 0 0 0 .393 1.448h-2.534c-.017-.214-.054-.572-.054-.7a4.191 4.191 0 0 1 -2.64.91c-2.019 0-3.23-1.251-3.23-2.788a2.718 2.718 0 0 1 .285-1.213 3.673 3.673 0 0 1 2.874-1.734 20.2 20.2 0 0 0 2.765-.661c0-.447-.036-1.359-1.515-1.359a1.9 1.9 0 0 0 -1.588.572 1.064 1.064 0 0 0 -.214.787zm5.514 1.859a6.176 6.176 0 0 1 -1.873.536c-.768.107-1.785.286-1.785 1.234a1.191 1.191 0 0 0 1.294 1.079 1.22 1.22 0 0 0 .152-.024 2.21 2.21 0 0 0 2.087-1.038 1.818 1.818 0 0 0 .125-.809v-.979zm12.206-4.487v7.326c-.018 1.77-.018 2.485-.572 3.236-.5.661-1.6 1.359-3.711 1.359-3.175 0-3.8-1.376-4.1-2.806h2.356a1.6 1.6 0 0 0 1.818 1.112 1.986 1.986 0 0 0 1.766-.715 3.4 3.4 0 0 0 .322-2.056 3.987 3.987 0 0 1 -2.677.965c-2.105 0-3.872-1.43-3.872-4.272 0-3.325 2.373-4.415 4.014-4.415a2.947 2.947 0 0 1 2.535 1.2v-.93h2.12zm-4.281 1.644a2.192 2.192 0 0 0 -2.194 2.449 2.123 2.123 0 0 0 1.868 2.349 2.09 2.09 0 0 0 .344.011 2.059 2.059 0 0 0 2.2-1.907 2.006 2.006 0 0 0 -.006-.364 2.221 2.221 0 0 0 -2.228-2.546zm14.6 5.291a5.2 5.2 0 0 1 -4.354 2.27 4.411 4.411 0 0 1 -4.586-4.773c0-3 1.927-4.7 4.442-4.7a4.024 4.024 0 0 1 3.515 1.68 6.694 6.694 0 0 1 .909 3.486h-6.6a2.411 2.411 0 0 0 2.534 2.217 2.6 2.6 0 0 0 2.322-1.233zm-2.428-3.609a1.911 1.911 0 0 0 -1.942-1.879h-.056a2.112 2.112 0 0 0 -2.174 1.879h4.175zm4.534 2.967a3.109 3.109 0 0 0 2.568 1.144c1.232 0 1.767-.607 1.767-1.055a.939.939 0 0 0 -.928-.768c-.3-.072-1.767-.34-2.088-.429-2.12-.506-2.515-1.734-2.515-2.538 0-1.517 1.373-2.913 3.818-2.913a5.06 5.06 0 0 1 2.945.859 3.946 3.946 0 0 1 .908.809l-1.514 1.416a2.5 2.5 0 0 0 -2.423-1.358c-1.018 0-1.481.447-1.481.91 0 .644.66.822 1.8 1.019 1.855.34 2.373.429 2.944.876a2.427 2.427 0 0 1 .908 1.9c0 1.394-1.249 3.057-4.015 3.057a6.1 6.1 0 0 1 -4.281-1.591zm8.909-6.347a1.847 1.847 0 1 1 1.849-1.841 1.83 1.83 0 0 1 -1.829 1.831h-.035zm.01-3.527a1.356 1.356 0 1 0 .022-.006h-.041zm-.031.506a1.616 1.616 0 0 1 .544.058.562.562 0 0 1 .373.539.554.554 0 0 1 -.477.555.513.513 0 0 1 .331.488 1.943 1.943 0 0 0 .177.69h-.471a1.063 1.063 0 0 1 -.093-.322c-.01-.052-.047-.3-.057-.358-.062-.332-.223-.358-.523-.363h-.145v1.043h-.414v-2.329h.755zm-.336.955h.342a.389.389 0 0 0 .484-.261.407.407 0 0 0 .013-.06.294.294 0 0 0 -.166-.275.946.946 0 0 0 -.409-.036h-.264v.633z" fill="#fff" transform="translate(-1.75 -.313)"/></g></svg>